<?xml version="1.0" encoding="utf-8"?>
<!-- Generator: Limmidy via Adobe Illustrator 18.1.1, SVG Export Plug-In . SVG Version: 6.00 Build 0)  -->
<svg version="1.1" id="Layer_1" xmlns="http://www.w3.org/2000/svg" xmlns:xlink="http://www.w3.org/1999/xlink" x="0px" y="0px"
	 viewBox="0 0 378 113.2" enable-background="new 0 0 378 113.2" xml:space="preserve">
<g>
	<defs>
		<rect id="SVGID_1_" x="0" y="0" width="378" height="113.2"/>
	</defs>
	<clipPath id="SVGID_2_">
		<use xlink:href="#SVGID_1_"  overflow="visible"/>
	</clipPath>
	<path clip-path="url(#SVGID_2_)" d="M106.8,73.9c0,2.1-1.7,3.7-3.7,3.7c-2.1,0-3.7-1.7-3.7-3.7c0-2.1,1.7-3.7,3.7-3.7
		C105.1,70.2,106.8,71.9,106.8,73.9"/>
	<path clip-path="url(#SVGID_2_)" d="M76.3,73.9c0,2.1-1.7,3.7-3.7,3.7c-2,0-3.7-1.7-3.7-3.7c0-2.1,1.7-3.7,3.7-3.7
		C74.6,70.2,76.3,71.9,76.3,73.9"/>
	<path clip-path="url(#SVGID_2_)" d="M87.8,38.3c20,0,36.3,15.8,36.3,35.3c0,19.5-16.3,35.3-36.3,35.3c-20,0-36.3-15.8-36.3-35.3
		C51.6,54.2,67.8,38.3,87.8,38.3 M87.8,34.1c-22.3,0-40.5,17.7-40.5,39.5c0,21.8,18.1,39.5,40.5,39.5c22.4,0,40.5-17.7,40.5-39.5
		C128.3,51.8,110.2,34.1,87.8,34.1"/>
	<path clip-path="url(#SVGID_2_)" d="M88,99.2c-8.7,0-15-4.8-15.3-5c-0.9-0.7-1.1-2-0.4-3c0.7-0.9,2-1.1,3-0.4c0,0,5.5,4.1,12.8,4.1
		c6.9,0,12.2-4.1,12.2-4.1c0.9-0.7,2.2-0.5,3,0.4c0.7,0.9,0.6,2.2-0.4,3C102.5,94.4,96.3,99.2,88,99.2"/>
	<path clip-path="url(#SVGID_2_)" d="M153.2,104.1V64.8h4.3v39.3c0,1,0.4,1.6,1.6,1.9h19.5v4h-19.4
		C155.9,110,153.2,107.7,153.2,104.1"/>
	<path clip-path="url(#SVGID_2_)" d="M195.1,107c4.1,0,7.4-1.3,10.6-3.6l1.9,3.1c-3.6,2.8-7.6,4.2-12.8,4.2
		c-9.9,0-15.7-6.8-15.7-16.1c0-9,6.2-16.1,15-16.1c8.3,0,13.9,5.6,14.3,13.8c0,0,0.2,2.4,0.2,3h-25.2
		C183.7,102.1,187.8,107,195.1,107 M183.6,91.6h20.5c-0.7-5.6-4-9.7-9.9-9.7C188.4,81.9,184.4,86.3,183.6,91.6"/>
	<path clip-path="url(#SVGID_2_)" d="M213.4,70.9h4.2v8.3h10.3v3.9h-10.3v17.3c0,3.9,2,6.2,6,6.2c2.2,0,4.6-0.6,6.5-1.3v3.6
		c-2.1,1-4.9,1.4-7.2,1.4c-6,0-9.5-3.7-9.5-9.7V70.9z"/>
	<path clip-path="url(#SVGID_2_)" d="M232.3,76.4l-1.4-0.5c1.3-2.6,2.1-4.2,2.3-6.4c-1.7-0.4-2.6-1.5-2.6-2.7c0-2.1,1.3-3,2.8-3
		c2.1,0,3,1.5,3,3.5C236.5,70.4,234.2,74,232.3,76.4"/>
	<path clip-path="url(#SVGID_2_)" d="M251.6,92.3c5.7,1.5,11,4,11,9.9c0,4.9-2.6,8.5-12.8,8.5c-5.3,0-10.1-1.3-12.1-5.6l3.6-1.8
		c1.5,3,4,3.9,8.9,3.9c6.5,0,8.5-1.9,8.5-4.6c0-3.4-3.5-5.2-8.1-6.5c-7.2-2-11.5-4.4-11.5-9.8c0-5.3,4.4-7.8,11.2-7.8
		c3.8,0,8.9,0.3,11.4,5.1l-3.4,1.7c-1.5-2.8-4.7-3.5-8.2-3.5c-3.1,0-6.9,0.8-6.9,4.1C243.2,88.5,244.4,90.3,251.6,92.3"/>
	<polygon clip-path="url(#SVGID_2_)" points="289.2,110 284.9,110 284.9,68.6 271.6,68.6 271.6,64.8 302.5,64.8 302.5,68.6 
		289.2,68.6 	"/>
	<path clip-path="url(#SVGID_2_)" d="M329,79.2V110h-3.7l-0.1-0.3c-0.3-1.3-1.3-1.3-2.1-1.1c-1.3,0.4-2.6,0.8-4,1.2
		c-1.3,0.3-2.8,0.6-4.4,0.6c-9.4,0-15.5-6-15.5-15.5c0-9,5.9-16.6,15.9-16.6c4.4,0,7.8,1.5,10,4v-3.2H329z M315.3,82
		c-7.9,0-11.8,5.8-11.8,12.8c0,7.1,4,12.1,11.6,12.1c3.7,0,7.3-1.3,9.8-2.8V91.8C324.9,85.6,320.5,82,315.3,82"/>
	<rect x="338" y="64.4" clip-path="url(#SVGID_2_)" width="4.2" height="45.6"/>
	<path clip-path="url(#SVGID_2_)" d="M365.5,98.1c-1.5-2.4-2.2-3.1-4.7-3.1h-5.5V110h-4.1V64.4h4.1v26.9h2.8c5.3,0,7.9-0.3,10.8-6.8
		l2.4-5.3h4.5l-3.7,7.8c-1.2,2.7-2.8,4.6-4.9,6l10.8,17h-5.1L365.5,98.1z"/>
	<path clip-path="url(#SVGID_2_)" fill="#005388" d="M223.4,0.3h9.3v54h-9.3V40h-24.9c0.3,3.9,3.1,7.9,9.4,7.9c3.3,0,6.2-1,8.4-2.7
		l4.5,5.3c-3.1,2.8-7.7,4.6-14,4.6c-5.2,0-10.3-1.5-13.8-5.4c-1.7-1.9-3.1-4.4-3.7-7.5c-2,6.9-8.3,11.5-17.4,11.9
		c-2.9,0.1-6,0.1-9.2,0.1c-3.6,0-7.2,0-10.8,0V0l12.6,0c6.4,0,11.6,0.7,15.5,3.9c2.6,2.2,4.2,5.6,4.2,9.4c0,4-1.8,7.6-5.2,10
		c4.5,1.4,8.8,4.7,10.4,9.6c1.8-7,7.8-13.6,17.5-13.6c6.3,0,10.9,2.4,13.8,6.2c1.4,1.8,2.4,3.9,2.9,6.3V0.3z M161.5,21.6h3.1
		c1.7,0,2.9-0.1,3.7-0.3c5-1,5.9-4.7,5.9-7.1c0-2.8-1.3-5-4.1-6.1c-1.4-0.6-3.4-0.8-5.9-0.8l-2.6,0V21.6z M179.6,37.6
		c0-4-2.4-7.1-6.7-8.2c-1.2-0.3-3.4-0.5-5.3-0.5h-6.1l0,17.7h6.8c1.2,0,2.6,0,3.8-0.3C177.4,45.4,179.6,41.8,179.6,37.6 M214.7,33.2
		c-0.7-4.2-3.6-6.8-7.9-6.8c-4.3,0-7.2,2.8-8,6.8H214.7z"/>
	<rect x="239" y="0.3" clip-path="url(#SVGID_2_)" fill="#005388" width="9.2" height="54"/>
	<path clip-path="url(#SVGID_2_)" fill="#005388" d="M14.2,92.4c-0.9,0-1.8-0.3-2.5-0.9c-1.3-1.1-1.8-2.9-1.2-4.5l9.6-23.8H8.1
		c-4.5,0-8.1-3.6-8.1-8.1L0,9.3c0-4.5,3.6-8.1,8.1-8.1h73c4.5,0,8.1,3.6,8.1,8.1v45.8c0,4.5-3.6,8.1-8.1,8.1h-22L16.4,91.7
		C15.7,92.2,14.9,92.4,14.2,92.4 M8.1,9.1C8,9.1,7.9,9.2,7.9,9.3v45.8c0,0.1,0.1,0.2,0.2,0.2H26c1.3,0,2.5,0.6,3.3,1.7
		c0.7,1.1,0.9,2.5,0.4,3.7l-7,17.4L55.7,56c0.6-0.4,1.4-0.7,2.2-0.7h23.2c0.1,0,0.2-0.1,0.2-0.2V9.3c0-0.1-0.1-0.2-0.2-0.2H8.1z"/>
</g>
</svg>
